<?xml version="1.0" encoding="UTF-8"?>
<mxfile host="app.diagrams.net" modified="2024-03-10T16:30:00.000Z" agent="Mozilla/5.0" version="21.1.8" type="device">
  <diagram id="modern-wireframes" name="Modern Wireframes">
    <mxGraphModel dx="1422" dy="798" grid="1" gridSize="10" guides="1" tooltips="1" connect="1" arrows="1" fold="1" page="1" pageScale="1" pageWidth="1169" pageHeight="827" math="0" shadow="0">
      <root>
        <mxCell id="0" />
        <mxCell id="1" parent="0" />
        
        <!-- Home Page -->
        <mxCell id="home-page" value="Home Page" style="swimlane;fontStyle=1;childLayout=stackLayout;horizontal=1;startSize=30;fillColor=#f8f9fa;horizontalStack=0;resizeParent=1;resizeParentMax=0;resizeLast=0;collapsible=0;marginBottom=0;html=1;rounded=1;shadow=0;glass=0;swimlaneLine=1;" vertex="1" parent="1">
          <mxGeometry x="40" y="40" width="320" height="440" as="geometry" />
        </mxCell>
        
        <!-- Navigation Bar -->
        <mxCell id="nav-bar" value="" style="rounded=1;whiteSpace=wrap;html=1;fillColor=#ffffff;strokeColor=#dee2e6;" vertex="1" parent="home-page">
          <mxGeometry y="30" width="320" height="60" as="geometry" />
        </mxCell>
        <mxCell id="logo" value="Logo" style="text;html=1;strokeColor=none;fillColor=none;align=center;verticalAlign=middle;whiteSpace=wrap;rounded=0;fontStyle=1" vertex="1" parent="nav-bar">
          <mxGeometry x="10" y="15" width="60" height="30" as="geometry" />
        </mxCell>
        <mxCell id="nav-links" value="Home | Posts | About | Contact" style="text;html=1;strokeColor=none;fillColor=none;align=center;verticalAlign=middle;whiteSpace=wrap;rounded=0;" vertex="1" parent="nav-bar">
          <mxGeometry x="80" y="15" width="160" height="30" as="geometry" />
        </mxCell>
        <mxCell id="user-menu" value="User ▼" style="rounded=1;whiteSpace=wrap;html=1;fillColor=#f8f9fa;strokeColor=#dee2e6;" vertex="1" parent="nav-bar">
          <mxGeometry x="250" y="15" width="60" height="30" as="geometry" />
        </mxCell>

        <!-- Hero Section -->
        <mxCell id="hero-section" value="" style="rounded=1;whiteSpace=wrap;html=1;fillColor=#e9ecef;strokeColor=#dee2e6;" vertex="1" parent="home-page">
          <mxGeometry y="90" width="320" height="160" as="geometry" />
        </mxCell>
        <mxCell id="hero-title" value="Community Feedback Platform" style="text;html=1;strokeColor=none;fillColor=none;align=center;verticalAlign=middle;whiteSpace=wrap;rounded=0;fontSize=16;fontStyle=1" vertex="1" parent="hero-section">
          <mxGeometry x="40" y="20" width="240" height="30" as="geometry" />
        </mxCell>
        <mxCell id="hero-text" value="Share your ideas and suggestions to help improve our community" style="text;html=1;strokeColor=none;fillColor=none;align=center;verticalAlign=middle;whiteSpace=wrap;rounded=0;" vertex="1" parent="hero-section">
          <mxGeometry x="40" y="60" width="240" height="40" as="geometry" />
        </mxCell>
        <mxCell id="cta-button" value="Create Post" style="rounded=1;whiteSpace=wrap;html=1;fillColor=#0d6efd;strokeColor=none;fontColor=#ffffff;fontStyle=1" vertex="1" parent="hero-section">
          <mxGeometry x="100" y="110" width="120" height="40" as="geometry" />
        </mxCell>

        <!-- Posts Grid -->
        <mxCell id="posts-section" value="" style="rounded=1;whiteSpace=wrap;html=1;fillColor=#ffffff;strokeColor=#dee2e6;" vertex="1" parent="home-page">
          <mxGeometry y="250" width="320" height="190" as="geometry" />
        </mxCell>
        <mxCell id="posts-title" value="Recent Posts" style="text;html=1;strokeColor=none;fillColor=none;align=left;verticalAlign=middle;whiteSpace=wrap;rounded=0;fontSize=14;fontStyle=1" vertex="1" parent="posts-section">
          <mxGeometry x="20" y="10" width="100" height="30" as="geometry" />
        </mxCell>
        <mxCell id="post-card-1" value="" style="rounded=1;whiteSpace=wrap;html=1;fillColor=#f8f9fa;strokeColor=#dee2e6;" vertex="1" parent="posts-section">
          <mxGeometry x="20" y="50" width="280" height="60" as="geometry" />
        </mxCell>
        <mxCell id="post-card-2" value="" style="rounded=1;whiteSpace=wrap;html=1;fillColor=#f8f9fa;strokeColor=#dee2e6;" vertex="1" parent="posts-section">
          <mxGeometry x="20" y="120" width="280" height="60" as="geometry" />
        </mxCell>

        <!-- Post Detail Page -->
        <mxCell id="post-detail" value="Post Detail" style="swimlane;fontStyle=1;childLayout=stackLayout;horizontal=1;startSize=30;fillColor=#f8f9fa;horizontalStack=0;resizeParent=1;resizeParentMax=0;resizeLast=0;collapsible=0;marginBottom=0;html=1;rounded=1;shadow=0;glass=0;swimlaneLine=1;" vertex="1" parent="1">
          <mxGeometry x="400" y="40" width="320" height="440" as="geometry" />
        </mxCell>

        <!-- Post Content -->
        <mxCell id="post-content" value="" style="rounded=1;whiteSpace=wrap;html=1;fillColor=#ffffff;strokeColor=#dee2e6;" vertex="1" parent="post-detail">
          <mxGeometry y="30" width="320" height="200" as="geometry" />
        </mxCell>
        <mxCell id="post-title" value="Post Title" style="text;html=1;strokeColor=none;fillColor=none;align=left;verticalAlign=middle;whiteSpace=wrap;rounded=0;fontSize=16;fontStyle=1" vertex="1" parent="post-content">
          <mxGeometry x="20" y="20" width="280" height="30" as="geometry" />
        </mxCell>
        <mxCell id="post-meta" value="Posted by User • 2 hours ago • Category" style="text;html=1;strokeColor=none;fillColor=none;align=left;verticalAlign=middle;whiteSpace=wrap;rounded=0;fontSize=11;fontColor=#6c757d" vertex="1" parent="post-content">
          <mxGeometry x="20" y="50" width="280" height="20" as="geometry" />
        </mxCell>
        <mxCell id="post-description" value="Post description text goes here..." style="text;html=1;strokeColor=none;fillColor=none;align=left;verticalAlign=top;whiteSpace=wrap;rounded=0;" vertex="1" parent="post-content">
          <mxGeometry x="20" y="80" width="280" height="60" as="geometry" />
        </mxCell>
        <mxCell id="post-status" value="Status: Open" style="rounded=1;whiteSpace=wrap;html=1;fillColor=#28a745;strokeColor=none;fontColor=#ffffff;fontSize=11;" vertex="1" parent="post-content">
          <mxGeometry x="20" y="150" width="80" height="24" as="geometry" />
        </mxCell>

        <!-- Suggestions Section -->
        <mxCell id="suggestions" value="" style="rounded=1;whiteSpace=wrap;html=1;fillColor=#ffffff;strokeColor=#dee2e6;" vertex="1" parent="post-detail">
          <mxGeometry y="230" width="320" height="210" as="geometry" />
        </mxCell>
        <mxCell id="suggestions-title" value="Suggestions" style="text;html=1;strokeColor=none;fillColor=none;align=left;verticalAlign=middle;whiteSpace=wrap;rounded=0;fontSize=14;fontStyle=1" vertex="1" parent="suggestions">
          <mxGeometry x="20" y="10" width="100" height="30" as="geometry" />
        </mxCell>
        <mxCell id="add-suggestion" value="Add Suggestion" style="rounded=1;whiteSpace=wrap;html=1;fillColor=#0d6efd;strokeColor=none;fontColor=#ffffff;fontStyle=1" vertex="1" parent="suggestions">
          <mxGeometry x="180" y="10" width="120" height="30" as="geometry" />
        </mxCell>
        <mxCell id="suggestion-card-1" value="" style="rounded=1;whiteSpace=wrap;html=1;fillColor=#f8f9fa;strokeColor=#dee2e6;" vertex="1" parent="suggestions">
          <mxGeometry x="20" y="50" width="280" height="70" as="geometry" />
        </mxCell>
        <mxCell id="suggestion-card-2" value="" style="rounded=1;whiteSpace=wrap;html=1;fillColor=#f8f9fa;strokeColor=#dee2e6;" vertex="1" parent="suggestions">
          <mxGeometry x="20" y="130" width="280" height="70" as="geometry" />
        </mxCell>

        <!-- Admin Dashboard -->
        <mxCell id="admin-dashboard" value="Admin Dashboard" style="swimlane;fontStyle=1;childLayout=stackLayout;horizontal=1;startSize=30;fillColor=#f8f9fa;horizontalStack=0;resizeParent=1;resizeParentMax=0;resizeLast=0;collapsible=0;marginBottom=0;html=1;rounded=1;shadow=0;glass=0;swimlaneLine=1;" vertex="1" parent="1">
          <mxGeometry x="760" y="40" width="320" height="440" as="geometry" />
        </mxCell>

        <!-- Stats Cards -->
        <mxCell id="stats-grid" value="" style="rounded=1;whiteSpace=wrap;html=1;fillColor=#ffffff;strokeColor=#dee2e6;" vertex="1" parent="admin-dashboard">
          <mxGeometry y="30" width="320" height="100" as="geometry" />
        </mxCell>
        <mxCell id="stats-card-1" value="Total Posts&#xa;128" style="rounded=1;whiteSpace=wrap;html=1;fillColor=#f8f9fa;strokeColor=#dee2e6;align=center;verticalAlign=middle;spacingTop=10;" vertex="1" parent="stats-grid">
          <mxGeometry x="20" y="20" width="80" height="60" as="geometry" />
        </mxCell>
        <mxCell id="stats-card-2" value="Active Users&#xa;256" style="rounded=1;whiteSpace=wrap;html=1;fillColor=#f8f9fa;strokeColor=#dee2e6;align=center;verticalAlign=middle;spacingTop=10;" vertex="1" parent="stats-grid">
          <mxGeometry x="120" y="20" width="80" height="60" as="geometry" />
        </mxCell>
        <mxCell id="stats-card-3" value="Suggestions&#xa;512" style="rounded=1;whiteSpace=wrap;html=1;fillColor=#f8f9fa;strokeColor=#dee2e6;align=center;verticalAlign=middle;spacingTop=10;" vertex="1" parent="stats-grid">
          <mxGeometry x="220" y="20" width="80" height="60" as="geometry" />
        </mxCell>

        <!-- Admin Controls -->
        <mxCell id="admin-controls" value="" style="rounded=1;whiteSpace=wrap;html=1;fillColor=#ffffff;strokeColor=#dee2e6;" vertex="1" parent="admin-dashboard">
          <mxGeometry y="130" width="320" height="310" as="geometry" />
        </mxCell>
        <mxCell id="controls-title" value="Quick Actions" style="text;html=1;strokeColor=none;fillColor=none;align=left;verticalAlign=middle;whiteSpace=wrap;rounded=0;fontSize=14;fontStyle=1" vertex="1" parent="admin-controls">
          <mxGeometry x="20" y="10" width="100" height="30" as="geometry" />
        </mxCell>
        <mxCell id="generate-report" value="Generate Report" style="rounded=1;whiteSpace=wrap;html=1;fillColor=#0d6efd;strokeColor=none;fontColor=#ffffff;fontStyle=1" vertex="1" parent="admin-controls">
          <mxGeometry x="20" y="50" width="280" height="40" as="geometry" />
        </mxCell>
        <mxCell id="manage-users" value="Manage Users" style="rounded=1;whiteSpace=wrap;html=1;fillColor=#6c757d;strokeColor=none;fontColor=#ffffff;fontStyle=1" vertex="1" parent="admin-controls">
          <mxGeometry x="20" y="100" width="280" height="40" as="geometry" />
        </mxCell>
        <mxCell id="manage-contacts" value="Manage Contacts" style="rounded=1;whiteSpace=wrap;html=1;fillColor=#6c757d;strokeColor=none;fontColor=#ffffff;fontStyle=1" vertex="1" parent="admin-controls">
          <mxGeometry x="20" y="150" width="280" height="40" as="geometry" />
        </mxCell>
        <mxCell id="system-settings" value="System Settings" style="rounded=1;whiteSpace=wrap;html=1;fillColor=#6c757d;strokeColor=none;fontColor=#ffffff;fontStyle=1" vertex="1" parent="admin-controls">
          <mxGeometry x="20" y="200" width="280" height="40" as="geometry" />
        </mxCell>

      </root>
    </mxGraphModel>
  </diagram>
</mxfile>